<svg width="38" height="34" viewBox="0 0 38 34" fill="none" xmlns="http://www.w3.org/2000/svg">
<path d="M37.7267 13.5998L31.9203 9.30222V2.03982C31.9203 1.85948 31.8403 1.68652 31.6977 1.55899C31.5552 1.43147 31.3619 1.35982 31.1603 1.35982H26.6003C26.3988 1.35982 26.2055 1.43147 26.0629 1.55899C25.9204 1.68652 25.8403 1.85948 25.8403 2.03982V4.84142L19.4867 0.163024C19.3513 0.064745 19.1823 0.0111084 19.0079 0.0111084C18.8336 0.0111084 18.6645 0.064745 18.5291 0.163024L0.273931 13.5998C0.121712 13.7117 0.0239593 13.872 0.00127547 14.047C-0.0214084 14.2221 0.0327481 14.3982 0.152331 14.5382L2.38673 17.1358C2.44896 17.2072 2.52648 17.2667 2.61475 17.3109C2.70302 17.3551 2.80026 17.383 2.90077 17.3932C3.00128 17.4033 3.10305 17.3954 3.20009 17.3699C3.29714 17.3444 3.38752 17.3018 3.46593 17.2446L4.56033 16.4286V32.2998C4.56429 32.5267 4.61816 32.7506 4.71884 32.9588C4.81953 33.167 4.96508 33.3554 5.14716 33.5132C5.32924 33.6711 5.5443 33.7953 5.78005 33.8788C6.0158 33.9623 6.26762 34.0034 6.52113 33.9998H31.4795C31.733 34.0034 31.9849 33.9623 32.2206 33.8788C32.4564 33.7953 32.6714 33.6711 32.8535 33.5132C33.0356 33.3554 33.1811 33.167 33.2818 32.9588C33.3825 32.7506 33.4364 32.5267 33.4403 32.2998V16.4286L34.5195 17.2174C34.6573 17.3164 34.8293 17.3693 35.0059 17.367H35.0971C35.1982 17.3571 35.296 17.3291 35.3848 17.2847C35.4736 17.2403 35.5515 17.1804 35.6139 17.1086L37.8483 14.511C37.9589 14.373 38.0077 14.2029 37.9852 14.0343C37.9627 13.8657 37.8705 13.7107 37.7267 13.5998ZM27.3603 2.71982H30.4003V8.15982L27.3603 5.95662V2.71982ZM12.1603 32.6398V23.1198H16.7203V32.6398H12.1603ZM31.9203 32.2998C31.9165 32.3481 31.902 32.3952 31.8777 32.4385C31.8535 32.4817 31.8199 32.5202 31.7789 32.5518C31.738 32.5834 31.6904 32.6075 31.639 32.6226C31.5877 32.6377 31.5335 32.6435 31.4795 32.6398H18.2403V22.4398C18.2403 22.2595 18.1603 22.0865 18.0177 21.959C17.8752 21.8315 17.6819 21.7598 17.4803 21.7598H11.4003C11.1988 21.7598 11.0055 21.8315 10.8629 21.959C10.7204 22.0865 10.6403 22.2595 10.6403 22.4398V32.6398H6.52113C6.46721 32.6435 6.41299 32.6377 6.36161 32.6226C6.31023 32.6075 6.26269 32.5834 6.22172 32.5518C6.18076 32.5202 6.14718 32.4817 6.12292 32.4385C6.09865 32.3952 6.08418 32.3481 6.08033 32.2998V15.3134L19.0003 5.79342L31.9203 15.3134V32.2998ZM34.8691 15.7214L19.4867 4.44702C19.3513 4.34874 19.1823 4.29511 19.0079 4.29511C18.8336 4.29511 18.6645 4.34874 18.5291 4.44702L3.13153 15.735L1.82433 14.2118L19.0003 1.56382L36.1915 14.1982L34.8691 15.7214ZM23.5603 27.1998H28.1203C28.3219 27.1998 28.5152 27.1282 28.6577 27.0007C28.8003 26.8731 28.8803 26.7002 28.8803 26.5198V19.7198C28.8803 19.5395 28.8003 19.3665 28.6577 19.239C28.5152 19.1115 28.3219 19.0398 28.1203 19.0398H23.5603C23.3588 19.0398 23.1655 19.1115 23.0229 19.239C22.8804 19.3665 22.8003 19.5395 22.8003 19.7198V26.5198C22.8003 26.7002 22.8804 26.8731 23.0229 27.0007C23.1655 27.1282 23.3588 27.1998 23.5603 27.1998ZM24.3203 20.3998H27.3603V25.8398H24.3203V20.3998Z" fill="#0E1D25"/>
</svg>
