<?xml version="1.0" encoding="utf-8"?>
<svg version="1.1" id="Icons" xmlns="http://www.w3.org/2000/svg" xmlns:xlink="http://www.w3.org/1999/xlink" x="0px" y="0px"
	 viewBox="0 0 32 32" style="enable-background:new 0 0 32 32;" xml:space="preserve">
<style type="text/css">
	.st0{fill:none;stroke:#FFFFFF;stroke-width:2;stroke-linecap:round;stroke-linejoin:round;stroke-miterlimit:10;}
</style>
<path class="st0" d="M19,10c0-2.8-2.2-5-5-5v12v4v6.1c0,1,0.8,1.9,1.9,1.9h0c1.1,0,2-1,1.9-2.1l-0.5-5c-0.1-1.3,0.6-2.5,1.8-2.9h0
	V10z"/>
<path class="st0" d="M26.7,17.7c-0.1-1.3,0.3-2.6,1.2-3.5c0.7-0.7,1.1-2,1.1-3.7c0-3-1.3-5.5-3-5.5s-3,2.4-3,5.5
	c0,1.7,0.4,2.9,1.1,3.7c0.9,1,1.3,2.2,1.2,3.5l-1,9.3c-0.1,1,0.7,2,1.7,2c1.1,0,1.9-0.9,1.7-2L26.7,17.7z"/>
<path class="st0" d="M3,5v5.5c0,1.7,0.4,2.9,1.1,3.7c0.9,1,1.3,2.2,1.2,3.5l-1,9.3c-0.1,1,0.7,2,1.7,2c1.1,0,1.9-0.9,1.7-2l-1-9.3
	c-0.1-1.3,0.3-2.6,1.2-3.5c0.7-0.7,1.1-2,1.1-3.7V5"/>
<line class="st0" x1="6" y1="11" x2="6" y2="5"/>
</svg>
